<?xml version="1.0" encoding="UTF-8"?>
<svg height="16px" viewBox="0 0 16 16" width="16px" xmlns="http://www.w3.org/2000/svg">
  <path d="M 4.64 4.976 A 0.84 0.84 0 1 0 6.32 4.976 A 0.84 0.84 0 1 0 4.64 4.976 Z M 1.868 8 A 0.84 0.84 0 1 0 3.548 8 A 0.84 0.84 0 1 0 1.868 8 Z M 4.64 11.024 A 0.84 0.84 0 1 0 6.32 11.024 A 0.84 0.84 0 1 0 4.64 11.024 Z M 4.861 4.408 L 2.089 7.432 L 3.327 8.568 L 6.099 5.544 Z M 2.089 8.568 L 4.861 11.592 L 6.099 10.456 L 3.327 7.432 Z M 9.68 4.976 A 0.84 0.84 0 1 0 11.36 4.976 A 0.84 0.84 0 1 0 9.68 4.976 Z M 12.452 8 A 0.84 0.84 0 1 0 14.132 8 A 0.84 0.84 0 1 0 12.452 8 Z M 9.68 11.024 A 0.84 0.84 0 1 0 11.36 11.024 A 0.84 0.84 0 1 0 9.68 11.024 Z M 9.901 5.544 L 12.673 8.568 L 13.911 7.432 L 11.139 4.408 Z M 12.673 7.432 L 9.901 10.456 L 11.139 11.592 L 13.911 8.568 Z M 8.252 3.632 A 0.84 0.84 0 1 0 9.932 3.632 A 0.84 0.84 0 1 0 8.252 3.632 Z M 6.068 12.368 A 0.84 0.84 0 1 0 7.748 12.368 A 0.84 0.84 0 1 0 6.068 12.368 Z M 8.277 3.428 L 6.093 12.164 L 7.723 12.572 L 9.907 3.836 Z" fill="#2e3436" fill-rule="nonzero"/>
</svg>
